<svg width="24" height="24" viewBox="0 0 24 24" fill="none" xmlns="http://www.w3.org/2000/svg">
<path d="M12.0009 1.65429C14.5848 -0.627558 18.5777 -0.551821 21.0669 1.90098C23.5551 4.35487 23.6409 8.2629 21.3265 10.812L11.9987 20L2.67308 10.812C0.358718 8.2629 0.445617 4.34837 2.93267 1.90098C5.42412 -0.548575 9.40935 -0.630804 12.0009 1.65429V1.65429ZM19.5094 3.42979C17.8594 1.80469 15.1974 1.73869 13.4705 3.26425L12.002 4.56044L10.5324 3.26533C8.79996 1.73761 6.14351 1.80469 4.48914 3.43195C2.85017 5.04407 2.76767 7.62455 4.27795 9.32971L11.9998 16.937L19.7217 9.3308C21.233 7.62455 21.1505 5.04732 19.5094 3.42979V3.42979Z" fill="#838383"/>
</svg>
